<svg width="37" height="34" viewBox="0 0 37 34" fill="none" xmlns="http://www.w3.org/2000/svg">
<path fill-rule="evenodd" clip-rule="evenodd" d="M13.1674 0C10.7225 0 8.32798 0.086366 6.0021 0.251919C2.91687 0.471528 0.419515 2.79988 0.270625 5.79282C0.0933201 9.35694 0 13.0557 0 16.8484C0 20.641 0.0933201 24.3398 0.270625 27.9039C0.419517 30.8969 2.91687 33.2253 6.0021 33.4449C8.32798 33.6104 10.7225 33.6968 13.1674 33.6968C15.6122 33.6968 18.0068 33.6104 20.3326 33.4449C23.4179 33.2253 25.9153 30.8969 26.064 27.9039C26.1372 26.4345 26.1961 24.9418 26.24 23.4295C26.2602 22.7291 25.6966 22.1525 24.996 22.1525H20.3386C19.8218 22.1525 19.768 22.1525 19.2974 22.1525C18.0822 22.1525 18.4292 22.1525 16.944 22.1525C15.3373 22.1525 16.3233 22.1525 14.5907 22.1525C11.767 22.1525 10.3547 20.9612 9.88401 20.0199C9.41334 19.0786 9.22508 18.6079 9.22508 16.7252C9.22508 14.8426 9.36115 14.8895 9.88401 13.9012C10.8453 12.0842 12.708 11.5406 14.5907 11.5443C16.0027 11.547 14.5907 11.5479 16.4734 11.5443C18.356 11.5443 17.4147 11.5443 19.2974 11.5443C20.7094 11.5443 19.8217 11.5443 20.3386 11.5443H24.996C25.6966 11.5443 26.2602 10.9676 26.24 10.2673C26.1961 8.75479 26.1372 7.26235 26.064 5.79282C25.9153 2.79988 23.4179 0.471528 20.3326 0.251919C18.0068 0.086366 15.6122 0 13.1674 0Z" fill="white"/>
<path fill-rule="evenodd" clip-rule="evenodd" d="M28.9779 9.78541C28.542 9.99184 28.264 10.431 28.264 10.9134V14.6573L13.3215 14.6573C11.9429 14.6573 10.8254 15.7748 10.8254 17.1534C10.8254 18.5319 11.9429 19.6494 13.3215 19.6494H28.264V23.3933C28.264 23.8757 28.542 24.3149 28.9779 24.5213C29.4139 24.7277 29.9298 24.6644 30.303 24.3587C33.103 22.0646 34.5312 20.6375 36.7209 17.9399C37.093 17.4816 37.093 16.8252 36.7209 16.3668C34.5312 13.6692 33.103 12.2421 30.303 9.94801C29.9298 9.64224 29.4139 9.57909 28.9779 9.78541Z" fill="white"/>
</svg>
