<svg width="55" height="55" viewBox="0 0 55 55" fill="none" xmlns="http://www.w3.org/2000/svg">
<path fill-rule="evenodd" clip-rule="evenodd" d="M7.87593 23.6277C7.87593 14.9282 14.9283 7.8759 23.6278 7.8759C32.3272 7.8759 39.3794 14.9282 39.3794 23.6277C39.3794 32.3272 32.3272 39.3795 23.6278 39.3795C14.9283 39.3795 7.87593 32.3272 7.87593 23.6277ZM23.6278 0C10.5785 0 0 10.5785 0 23.6277C0 36.677 10.5785 47.2554 23.6278 47.2554C28.7307 47.2554 33.4558 45.6377 37.3182 42.8874L48.2776 53.8468C49.8154 55.3845 52.3089 55.3845 53.8467 53.8468C55.3844 52.3086 55.3844 49.8155 53.8467 48.2777L42.8873 37.3182C45.638 33.4558 47.2553 28.7307 47.2553 23.6277C47.2553 10.5785 36.677 0 23.6278 0Z" fill="#FFA63D"/>
</svg>
