<svg width="137" height="119" viewBox="0 0 137 119" fill="none" xmlns="http://www.w3.org/2000/svg">
<path fill-rule="evenodd" clip-rule="evenodd" d="M47.6609 0.807617C42.6731 0.807617 38.5157 3.43813 35.7698 6.99416C33.0272 10.5462 31.4767 15.2342 31.4767 20.2071C31.4767 25.18 33.0272 29.868 35.7698 33.4199C38.5157 36.976 42.6731 39.6065 47.6609 39.6065C52.6488 39.6065 56.8061 36.976 59.5519 33.4199C62.2947 29.868 63.8452 25.18 63.8452 20.2071C63.8452 15.2342 62.2947 10.5462 59.5519 6.99416C56.8061 3.43813 52.6488 0.807617 47.6609 0.807617ZM89.4286 0.807617C84.4408 0.807617 80.2834 3.43813 77.5376 6.99416C74.7949 10.5462 73.2443 15.2342 73.2443 20.2071C73.2443 25.18 74.7949 29.868 77.5376 33.4199C80.2834 36.976 84.4408 39.6065 89.4286 39.6065C94.4164 39.6065 98.5738 36.976 101.319 33.4199C104.062 29.868 105.613 25.18 105.613 20.2071C105.613 15.2342 104.062 10.5462 101.319 6.99416C98.5738 3.43813 94.4164 0.807617 89.4286 0.807617ZM119.586 37.4152C109.343 37.4152 102.837 47.1943 102.837 56.8146C102.837 66.4348 109.343 76.2141 119.586 76.2141C129.83 76.2141 136.336 66.4348 136.336 56.8146C136.336 47.1943 129.83 37.4152 119.586 37.4152ZM17.4977 37.4152C7.25408 37.4152 0.747681 47.1943 0.747681 56.8146C0.747681 66.4348 7.25408 76.2141 17.4977 76.2141C27.7412 76.2141 34.2476 66.4348 34.2476 56.8146C34.2476 47.1943 27.7412 37.4152 17.4977 37.4152ZM68.5425 55.8417C56.766 55.8417 48.0621 62.0689 42.4953 69.7817C37.0078 77.3846 34.2486 86.8066 34.2486 94.4662C34.2486 103.43 39.7145 109.655 46.385 113.386C52.9536 117.059 61.176 118.671 68.5425 118.671C75.9091 118.671 84.1315 117.059 90.7001 113.386C97.3706 109.655 102.837 103.43 102.837 94.4662C102.837 86.8066 100.077 77.3846 94.5899 69.7817C89.0231 62.0689 80.3191 55.8417 68.5425 55.8417Z" fill="white"/>
</svg>
