<svg width="180" height="191" viewBox="0 0 180 191" fill="none" xmlns="http://www.w3.org/2000/svg">
<path fill-rule="evenodd" clip-rule="evenodd" d="M90 11C40.2944 11 0 51.2944 0 101C0 150.706 40.2944 191 90 191C139.706 191 180 150.706 180 101C180 51.2944 139.706 11 90 11ZM63.1043 108.672C64.1923 109.76 65.4723 110.304 66.9443 110.304H82.5923C83.1683 110.304 83.4563 110.592 83.4563 111.168V126.528C83.4563 128 83.9683 129.28 84.9922 130.368C86.0803 131.456 87.3603 132 88.8323 132H91.1363C92.6083 132 93.8563 131.456 94.8802 130.368C95.9683 129.28 96.5123 128 96.5123 126.528V111.168C96.5123 110.592 96.8003 110.304 97.3763 110.304H113.024C114.496 110.304 115.776 109.76 116.864 108.672C117.952 107.584 118.496 106.304 118.496 104.832V103.488C118.496 102.016 117.952 100.736 116.864 99.648C115.776 98.56 114.496 98.016 113.024 98.016H97.3763C96.8003 98.016 96.5123 97.728 96.5123 97.152V81.792C96.5123 80.32 95.9683 79.04 94.8802 77.952C93.8563 76.864 92.6083 76.32 91.1363 76.32H88.8323C87.3603 76.32 86.0803 76.864 84.9922 77.952C83.9683 79.04 83.4563 80.32 83.4563 81.792V97.152C83.4563 97.728 83.1683 98.016 82.5923 98.016H66.9443C65.4723 98.016 64.1923 98.56 63.1043 99.648C62.0163 100.736 61.4723 102.016 61.4723 103.488V104.832C61.4723 106.304 62.0163 107.584 63.1043 108.672Z" fill="white"/>
</svg>
