<svg width="40" height="42" viewBox="0 0 40 42" fill="none" xmlns="http://www.w3.org/2000/svg">
<path fill-rule="evenodd" clip-rule="evenodd" d="M7.53929 7.79217C7.24705 5.9427 5.69098 4.58379 3.86538 4.58379H2.23311C0.999807 4.58379 0 3.55767 0 2.29189C0 1.02612 0.999807 0 2.23311 0H3.86538C7.56314 0 10.7583 2.53426 11.7436 6.11172H37.142C38.7864 6.11172 40.132 7.4835 39.9897 9.16483C39.6288 13.4229 38.5765 17.0471 37.594 19.5218C36.8746 21.3333 35.3561 22.6275 33.4883 23.0185C31.5392 23.4265 28.566 23.8399 24.5192 23.8399C21.6219 23.8399 19.1809 23.628 17.2462 23.3579C16.1594 23.2062 15.1811 22.7996 14.3406 22.2014L14.792 25.0583C15.0842 26.9078 16.6403 28.2667 18.4659 28.2667H34.9857C36.2189 28.2667 37.2188 29.2928 37.2188 30.5587C37.2188 31.8244 36.2189 32.8506 34.9857 32.8506H18.4659C14.4496 32.8506 11.0262 29.861 10.3833 25.792L7.53929 7.79217ZM15.1957 41.2361C17.0361 41.2361 18.528 39.7052 18.528 37.8163C18.528 35.9275 17.0361 34.3962 15.1957 34.3962C13.3554 34.3962 11.8635 35.9275 11.8635 37.8163C11.8635 39.7052 13.3554 41.2361 15.1957 41.2361ZM38.3181 37.8163C38.3181 39.7052 36.8261 41.2361 34.9857 41.2361C33.1453 41.2361 31.6535 39.7052 31.6535 37.8163C31.6535 35.9275 33.1453 34.3962 34.9857 34.3962C36.8261 34.3962 38.3181 35.9275 38.3181 37.8163Z" fill="white"/>
</svg>
