<svg width="40" height="39" viewBox="0 0 40 39" fill="none" xmlns="http://www.w3.org/2000/svg">
<path fill-rule="evenodd" clip-rule="evenodd" d="M12.9397 0.998812C15.4175 0.325678 17.9779 0 20 0C22.0221 0 24.5825 0.325678 27.0603 0.998812C29.5194 1.66691 32.035 2.71419 33.8626 4.24279C35.0522 5.23759 36.2678 6.79605 37.2858 8.53815C38.311 10.2925 39.1929 12.3312 39.6547 14.3422C40.1103 16.3248 40.1969 18.4562 39.4082 20.2647C38.9284 21.3649 38.1614 22.2629 37.1123 22.9085C36.6264 23.2075 36.037 22.8527 35.979 22.2851L35.9764 22.2629C35.5964 19.2751 34.9378 16.3393 34.3796 14.1643C34.0999 13.0731 33.8432 12.1654 33.6556 11.5283C33.562 11.2096 33.4854 10.9582 33.4319 10.7849L33.3693 10.5849L33.3524 10.5314L33.3456 10.5101C33.0425 9.57067 32.0353 9.0548 31.0959 9.35783C30.1565 9.66083 29.6412 10.6698 29.9441 11.6092L29.9472 11.619L29.9612 11.6624L30.017 11.8412C30.0659 11.9998 30.1377 12.2353 30.2266 12.5371C30.4042 13.1409 30.6493 14.0079 30.9175 15.0525C31.4537 17.1433 32.0728 19.9133 32.4276 22.692L32.7848 26.1978C32.7891 26.3951 32.7911 26.5915 32.7911 26.7866C32.7911 31.2864 31.6624 34.3473 29.164 36.1643C26.7893 37.8915 23.4984 38.2249 19.923 38.2249C16.3476 38.2249 13.0567 37.8915 10.6819 36.1643C8.18344 34.3473 7.05475 31.2864 7.05475 26.7866C7.05475 26.5365 7.05833 26.2843 7.06525 26.0307L7.47563 22.7139L7.47603 22.7109C7.83042 19.9258 8.45101 17.1481 8.98862 15.0525C9.25659 14.0079 9.50189 13.1409 9.6795 12.5371C9.76826 12.2353 9.84001 11.9998 9.88905 11.8412L9.94487 11.6624L9.95868 11.619L9.96237 11.6075C10.2653 10.6681 9.74951 9.66086 8.81012 9.35783C7.87071 9.0548 6.86282 9.5729 6.55978 10.5123L6.55838 10.5166L6.55367 10.5314L6.53665 10.5849L6.47417 10.7849C6.42058 10.9582 6.34403 11.2096 6.25029 11.5283C6.06287 12.1654 5.80616 13.0731 5.52624 14.1643C4.96824 16.3393 4.30967 19.2751 3.92969 22.2629C3.86083 22.8194 3.27535 23.1567 2.80264 22.8552C1.79697 22.2138 1.05855 21.3349 0.591823 20.2647C-0.196878 18.4562 -0.110272 16.3248 0.345199 14.3422C0.807174 12.3312 1.68918 10.2925 2.71425 8.53815C3.73218 6.79605 4.94791 5.23759 6.13736 4.24279C7.96508 2.71419 10.4805 1.66691 12.9397 0.998812ZM15.4648 25.9873C15.9063 25.1045 16.9798 24.7466 17.8627 25.188L19.2836 25.8985C19.6861 26.0997 20.1599 26.0997 20.5624 25.8985L21.9833 25.188C22.8662 24.7466 23.9397 25.1045 24.3812 25.9873C24.8226 26.8702 24.4648 27.9437 23.5819 28.3853L20.7223 29.8151C20.2191 30.0664 19.6269 30.0664 19.1237 29.8151L16.2641 28.3853C15.3812 27.9437 15.0234 26.8702 15.4648 25.9873ZM15.991 16.778C15.991 15.7909 15.1908 14.9907 14.2038 14.9907C13.2167 14.9907 12.4165 15.7909 12.4165 16.778V18.2078C12.4165 19.1948 13.2167 19.9951 14.2038 19.9951C15.1908 19.9951 15.991 19.1948 15.991 18.2078V16.778ZM27.4295 16.778C27.4295 15.7909 26.6293 14.9907 25.6422 14.9907C24.6551 14.9907 23.8549 15.7909 23.8549 16.778V18.2078C23.8549 19.1948 24.6551 19.9951 25.6422 19.9951C26.6293 19.9951 27.4295 19.1948 27.4295 18.2078V16.778Z" fill="white"/>
</svg>
