<svg width="40" height="36" viewBox="0 0 40 36" fill="none" xmlns="http://www.w3.org/2000/svg">
<path fill-rule="evenodd" clip-rule="evenodd" d="M18.4584 23.4813H21.5403C22.6071 24.0379 23.3353 25.1543 23.3353 26.4409V33.698C23.3353 34.4869 23.9749 35.1266 24.7639 35.1266H29.0377C31.6557 35.1266 33.882 33.2169 34.2805 30.6294C34.6451 28.262 34.7968 25.8698 34.7354 23.4813H37.8571C38.6951 23.4813 39.4562 22.9929 39.8051 22.2311C40.1542 21.4693 40.0274 20.574 39.4802 19.9393L23.7871 1.7353C21.7925 -0.578438 18.2075 -0.57843 16.2129 1.7353L0.519868 19.9393C-0.0272618 20.574 -0.154254 21.4693 0.194809 22.2311C0.543871 22.9929 1.30494 23.4813 2.14289 23.4813H5.26436C5.20302 25.8698 5.35474 28.262 5.71931 30.6294C6.11773 33.2169 8.3441 35.1266 10.9619 35.1266H15.2347C16.0237 35.1266 16.6633 34.4869 16.6633 33.698V26.4409C16.6633 25.1543 17.3916 24.0379 18.4584 23.4813Z" fill="white"/>
</svg>
