<svg width="33" height="33" viewBox="0 0 33 33" fill="none" xmlns="http://www.w3.org/2000/svg">
<path fill-rule="evenodd" clip-rule="evenodd" d="M13.5928 1.47114C15.0346 -0.490379 17.9653 -0.490378 19.4071 1.47114C20.7076 3.24038 22.8914 4.1422 25.0651 3.81012C27.4766 3.44167 29.5582 5.52337 29.1898 7.93502C28.8578 10.1086 29.7596 12.2924 31.5288 13.5928C33.4904 15.0346 33.4904 17.9653 31.5288 19.4071C29.7596 20.7076 28.8578 22.8914 29.1898 25.0651C29.5582 27.4766 27.4766 29.5582 25.0651 29.1898C22.8914 28.8578 20.7076 29.7596 19.4071 31.5288C17.9653 33.4904 15.0346 33.4904 13.5928 31.5288C12.2924 29.7596 10.1086 28.8578 7.93502 29.1898C5.52337 29.5582 3.44167 27.4766 3.81012 25.0651C4.1422 22.8914 3.24038 20.7076 1.47114 19.4071C-0.490378 17.9653 -0.490378 15.0346 1.47114 13.5928C3.24038 12.2924 4.1422 10.1086 3.81012 7.93502C3.44167 5.52337 5.52337 3.44167 7.93502 3.81012C10.1086 4.1422 12.2924 3.24038 13.5928 1.47114ZM9.02245 16.4996C9.02245 12.3698 12.3704 9.02186 16.5002 9.02186C20.6301 9.02186 23.978 12.3698 23.978 16.4996C23.978 20.6295 20.6301 23.9773 16.5002 23.9773C12.3704 23.9773 9.02245 20.6295 9.02245 16.4996Z" fill="white"/>
</svg>
