<svg width="180" height="180" viewBox="0 0 180 180" fill="none" xmlns="http://www.w3.org/2000/svg">
<path fill-rule="evenodd" clip-rule="evenodd" d="M0 90C0 40.2944 40.2944 0 90 0C139.706 0 180 40.2944 180 90C180 139.706 139.706 180 90 180C40.2944 180 0 139.706 0 90ZM59.4674 71.3141C59.4674 54.4513 73.1375 40.7813 90.0003 40.7813C106.863 40.7813 120.533 54.4513 120.533 71.3141C120.533 88.177 106.863 101.847 90.0003 101.847C73.1375 101.847 59.4674 88.177 59.4674 71.3141ZM136.539 136.76C138.124 139.17 137.62 142.357 135.41 144.211C123.125 154.512 107.287 160.714 90.0014 160.714C72.7151 160.714 56.8774 154.512 44.5926 144.211C42.3819 142.357 41.8782 139.17 43.4638 136.759C46.5467 132.074 50.3414 127.847 54.7474 124.246C64.6966 116.114 77.1512 111.671 90.001 111.671C102.851 111.671 115.305 116.114 125.255 124.246C129.66 127.847 133.456 132.074 136.539 136.76Z" fill="white"/>
</svg>
