<svg width="137" height="119" viewBox="0 0 137 119" fill="none" xmlns="http://www.w3.org/2000/svg">
<path fill-rule="evenodd" clip-rule="evenodd" d="M47.6608 0.807617C42.6729 0.807617 38.5155 3.43813 35.7697 6.99416C33.027 10.5462 31.4765 15.2342 31.4765 20.2071C31.4765 25.18 33.027 29.868 35.7697 33.4199C38.5155 36.976 42.6729 39.6065 47.6608 39.6065C52.6487 39.6065 56.806 36.976 59.5518 33.4199C62.2946 29.868 63.8451 25.18 63.8451 20.2071C63.8451 15.2342 62.2946 10.5462 59.5518 6.99416C56.806 3.43813 52.6487 0.807617 47.6608 0.807617ZM89.4284 0.807617C84.4407 0.807617 80.2833 3.43813 77.5374 6.99416C74.7948 10.5462 73.2442 15.2342 73.2442 20.2071C73.2442 25.18 74.7948 29.868 77.5374 33.4199C80.2833 36.976 84.4407 39.6065 89.4284 39.6065C94.4163 39.6065 98.5737 36.976 101.319 33.4199C104.062 29.868 105.612 25.18 105.612 20.2071C105.612 15.2342 104.062 10.5462 101.319 6.99416C98.5737 3.43813 94.4163 0.807617 89.4284 0.807617ZM119.586 37.4152C109.343 37.4152 102.836 47.1943 102.836 56.8146C102.836 66.4348 109.343 76.2141 119.586 76.2141C129.83 76.2141 136.336 66.4348 136.336 56.8146C136.336 47.1943 129.83 37.4152 119.586 37.4152ZM17.4976 37.4152C7.25396 37.4152 0.747559 47.1943 0.747559 56.8146C0.747559 66.4348 7.25396 76.2141 17.4976 76.2141C27.7411 76.2141 34.2475 66.4348 34.2475 56.8146C34.2475 47.1943 27.7411 37.4152 17.4976 37.4152ZM68.5424 55.8417C56.7659 55.8417 48.0619 62.0689 42.4951 69.7817C37.0077 77.3846 34.2485 86.8066 34.2485 94.4662C34.2485 103.43 39.7144 109.655 46.3849 113.386C52.9535 117.059 61.1759 118.671 68.5424 118.671C75.909 118.671 84.1314 117.059 90.7 113.386C97.3705 109.655 102.836 103.43 102.836 94.4662C102.836 86.8066 100.077 77.3846 94.5897 69.7817C89.0229 62.0689 80.319 55.8417 68.5424 55.8417Z" fill="#3D67FF"/>
</svg>
