<svg width="141" height="124" viewBox="0 0 141 124" fill="none" xmlns="http://www.w3.org/2000/svg">
<path fill-rule="evenodd" clip-rule="evenodd" d="M64.9943 82.7879H75.846C79.6024 84.7476 82.1668 88.6788 82.1668 93.2089V118.762C82.1668 121.54 84.4189 123.792 87.197 123.792H102.245C111.464 123.792 119.303 117.068 120.706 107.957C121.99 99.6214 122.524 91.198 122.308 82.7879H133.3C136.25 82.7879 138.931 81.0681 140.159 78.3857C141.388 75.7034 140.942 72.5508 139.015 70.316L83.7573 6.2174C76.7341 -1.92958 64.1111 -1.92955 57.0879 6.2174L1.83052 70.316C-0.0959925 72.5508 -0.543149 75.7034 0.685947 78.3857C1.91504 81.0681 4.59486 82.7879 7.54538 82.7879H18.5365C18.3205 91.198 18.8547 99.6214 20.1384 107.957C21.5413 117.068 29.3807 123.792 38.5984 123.792H53.6434C56.4215 123.792 58.6736 121.54 58.6736 118.762V93.2089C58.6736 88.6788 61.238 84.7476 64.9943 82.7879Z" fill="white"/>
</svg>
