<svg width="141" height="124" viewBox="0 0 141 124" fill="none" xmlns="http://www.w3.org/2000/svg">
<path fill-rule="evenodd" clip-rule="evenodd" d="M64.9959 82.7897H75.8478C79.6042 84.7495 82.1686 88.6807 82.1686 93.2108V118.764C82.1686 121.542 84.4207 123.795 87.1988 123.795H102.248C111.466 123.795 119.305 117.07 120.709 107.959C121.992 99.6234 122.526 91.1999 122.31 82.7897H133.302C136.253 82.7897 138.933 81.0698 140.161 78.3874C141.391 75.7051 140.944 72.5524 139.018 70.3176L83.7591 6.21821C76.7358 -1.92887 64.1127 -1.92884 57.0894 6.21821L1.83128 70.3176C-0.0952614 72.5524 -0.542423 75.7051 0.686689 78.3874C1.9158 81.0698 4.59565 82.7897 7.54621 82.7897H18.5375C18.3215 91.1999 18.8557 99.6234 20.1394 107.959C21.5424 117.07 29.3818 123.795 38.5996 123.795H53.6449C56.423 123.795 58.6751 121.542 58.6751 118.764V93.2108C58.6751 88.6807 61.2395 84.7495 64.9959 82.7897Z" fill="#3D67FF"/>
</svg>
