<svg width="1441" height="663" viewBox="0 0 1441 663" fill="none" xmlns="http://www.w3.org/2000/svg">
<path d="M0 224.609C0 224.609 213.693 62.894 362.5 65.0904C506.487 67.2156 568.041 220.197 712 224.609C866.36 229.339 935.137 60.5404 1089.5 65.0904C1142.11 66.6411 1202.94 88.2563 1259 115.103C1356.74 161.906 1441 225.5 1441 225.5V663H0V224.609Z" fill="#3D67FF"/>
<path d="M801.021 85.5899C798.556 106.431 791.194 128.842 776.682 144.481C776.256 144.94 776.062 146.145 775.844 146.741C775.535 147.587 775.231 148.435 774.934 149.285C774.408 150.787 773.903 152.296 773.432 153.815C772.634 156.391 771.923 159.001 771.437 161.655C770.656 165.918 771.081 169.721 771.468 173.967C771.798 177.59 773.544 181.048 774.254 184.655C775.931 193.183 775.894 203.863 771.679 211.666C768.002 218.457 764.377 225.259 760.349 231.852C757.397 236.685 734.263 236.344 739.629 228.689C741.481 226.049 744.305 224.273 746.263 221.732C751.853 214.477 755.346 210.689 749.634 203.199C749.02 202.392 748.386 201.623 747.743 200.87C746.999 202.461 746.245 204.053 745.479 205.647C742.525 211.792 736.445 224.275 736.445 224.275C736.445 224.275 734.176 231.017 731.871 233.446C729.377 236.074 726.027 235.088 722.695 235.241C720.635 235.336 718.546 235.369 716.499 235.075C712.448 234.492 708.349 232.502 710.035 227.719C712.173 221.658 721.775 220.089 723.346 214.349C723.931 212.215 724.22 210.014 724.194 207.801C724.149 203.877 723.13 200.097 722.662 196.229C722.207 192.461 722.538 188.598 723.646 184.967C724.12 183.413 724.777 181.822 724.759 180.171C724.744 178.78 723.389 177.947 722.404 177.069C720.504 175.373 718.436 173.825 716.132 172.719C711.433 170.463 706.34 170.705 701.625 172.8C697.558 174.608 696.73 179.032 695.597 183.147C693.414 191.073 688.403 196.671 685.329 204.695C682.835 211.203 681.462 219.005 679.507 226.339C677.553 233.673 679.718 240.651 668.736 239.824C664.375 239.496 651.922 237.816 654.034 230.445C655.248 226.211 661.334 228.973 663.866 225.395C666.192 222.109 665.816 218.435 665.865 214.599C665.92 210.342 665.975 206.085 666.03 201.828L665.936 201.657C664.109 202.037 662.177 201.867 660.434 201.207C659.995 201.041 659.588 200.823 659.166 200.621C658.53 200.316 658.631 200.216 658.281 200.817C657.808 201.632 657.586 202.746 657.271 203.635C654.257 212.154 652.017 220.914 649.362 229.545C647.92 234.233 646.758 238.618 641.036 238.253C637.492 238.026 633.891 237.605 630.541 236.363C626.218 234.76 624.165 230.599 628.67 227.503C633.265 224.345 635.739 226.348 637.445 219.965C638.983 214.211 638.975 208.175 639.66 202.292C640.224 197.447 640.818 192.602 641.543 187.779C639.739 187.749 638.497 187.622 638.041 187.429C625.891 182.279 616.503 171.231 611.38 164.058C608.642 160.223 608.497 155.116 611.049 151.155L620.536 136.425C620.894 135.869 620.936 135.156 620.613 134.579C613.373 121.657 623.11 105.966 627.193 100.326C627.958 99.2686 629.549 99.328 630.232 100.44L641.506 118.801C641.769 119.231 642.199 119.532 642.693 119.634L660.665 123.343C662.023 121.197 663.462 119.091 664.986 117.032C668.336 108.578 679.263 91.2332 689.5 85.3186C690.274 84.8717 691.228 85.5097 691.136 86.3982L690.52 92.3862C691.393 88.9533 701.797 75.1559 708.592 73.1708C709.424 72.9278 710.18 73.7504 709.917 74.5767L708.51 79.0016C710.365 76.3686 719.533 71.2444 728.108 72.0035C729.104 72.0916 729.451 73.3811 728.654 73.984L724.896 76.827C727.174 75.9881 737.808 77.0819 743.667 81.7531C744.457 82.3834 744.053 83.6595 743.043 83.7227L738.705 83.9951C742.267 84.6211 751.061 88.1587 755.091 93.7873C755.635 94.547 755.007 95.5966 754.076 95.5114L750.131 95.1504C752.946 96.2688 758.811 100.361 762.308 106.785C762.784 107.659 761.94 108.668 760.993 108.363L757.867 107.356C762.692 113.831 766.641 121.121 769.399 128.601C777.544 116.818 783.209 102.935 786.022 89.1177C788.34 77.7338 790.216 53.5128 774.344 50.1435C768.744 48.9549 765.555 52.0169 761.976 55.6113C758.694 58.9079 755.056 62.2567 750.602 58.5632C746.635 55.2735 747.371 49.6482 749.306 45.3842C755.196 32.4039 768.851 29.5594 781.225 34.9291C801.303 43.6421 803.28 66.4957 801.021 85.5899Z" fill="#3D67FF"/>
<path d="M634.064 168.869C633.954 167.126 635.839 164.765 635.839 164.765C635.839 164.765 634.297 167.195 634.563 168.842C634.772 170.135 635.133 171.033 636.227 171.754C637.38 172.514 638.399 172.348 639.749 172.059C640.777 171.839 642.19 170.922 642.19 170.922C642.19 170.922 640.858 172.202 639.777 172.559C638.282 173.052 637.049 173.178 635.755 172.281C634.533 171.434 634.158 170.353 634.064 168.869Z" fill="white"/>
<path d="M633.337 168.352C634.848 167.477 635.767 164.598 635.767 164.598C635.767 164.598 634.601 167.229 633.083 167.921C631.891 168.465 630.943 168.663 629.737 168.153C628.465 167.615 628.037 166.675 627.528 165.392C627.141 164.414 627.12 162.73 627.12 162.73C627.12 162.73 626.795 164.548 627.098 165.646C627.517 167.163 628.096 168.259 629.56 168.838C630.943 169.384 632.05 169.097 633.337 168.352Z" fill="white"/>
<path d="M656.164 154.413C652.875 153.159 646.988 154.625 647.194 155.301C647.401 155.977 652.409 154.668 655.459 155.737C658.431 156.777 661.139 161.027 662.051 160.379C662.962 159.731 659.223 155.578 656.164 154.413Z" fill="white"/>
<path d="M629.572 145.837C626.242 144.696 620.408 146.36 620.637 147.028C620.866 147.697 625.827 146.219 628.912 147.184C631.917 148.124 634.767 152.28 635.656 151.602C636.545 150.924 632.668 146.899 629.572 145.837Z" fill="white"/>
<path d="M640.707 162.617C640.362 162.282 633.962 158.737 633.675 159.462C633.389 160.187 633.782 164.107 635.617 165.027C637.599 166.021 641.052 162.953 640.707 162.617Z" fill="white"/>
</svg>
